<mxfile host="app.diagrams.net" modified="2021-05-07T08:25:22.654Z" agent="5.0 (Windows NT 10.0; WOW64) AppleWebKit/537.36 (KHTML, like Gecko) Chrome/78.0.3904.108 Safari/537.36" etag="oYrqXmDjj6DSruE0DqbS" version="14.6.10" type="github">
  <diagram id="vB55CcmqypZbTLC28MuA" name="Page-1">
    <mxGraphModel dx="2062" dy="1101" grid="1" gridSize="10" guides="1" tooltips="1" connect="1" arrows="1" fold="1" page="1" pageScale="1" pageWidth="827" pageHeight="1169" math="0" shadow="0">
      <root>
        <mxCell id="0" />
        <mxCell id="1" parent="0" />
        <mxCell id="5Vi8D_bojMhF40to4ILd-1" value="" style="ellipse;whiteSpace=wrap;html=1;aspect=fixed;" parent="1" vertex="1">
          <mxGeometry x="230" y="330" width="60" height="60" as="geometry" />
        </mxCell>
        <mxCell id="awJzjbu2ppu-3NjoTyqy-1" value="" style="shape=xor;whiteSpace=wrap;html=1;" vertex="1" parent="1">
          <mxGeometry x="250" y="500" width="60" height="80" as="geometry" />
        </mxCell>
      </root>
    </mxGraphModel>
  </diagram>
</mxfile>
